<svg id="Layer_3" data-name="Layer 3" xmlns="http://www.w3.org/2000/svg" width="700" viewBox="0 0 516.06 383.93" preserverAspectRatio="xMidYMidslice"><defs><style>.cls-1{fill:#e9e9f5;}.cls-10,.cls-2{fill:none;}.cls-12,.cls-14,.cls-15,.cls-16,.cls-17,.cls-18,.cls-2,.cls-20,.cls-22,.cls-23,.cls-4{stroke:#25386f;}.cls-10,.cls-12,.cls-14,.cls-15,.cls-16,.cls-17,.cls-18,.cls-2,.cls-20,.cls-22,.cls-23,.cls-4{stroke-miterlimit:10;}.cls-3{fill:#c4d7ed;}.cls-25,.cls-26,.cls-3,.cls-30,.cls-7{stroke:#30426b;stroke-linejoin:round;}.cls-28,.cls-4{fill:#a3edba;}.cls-5{fill:#42c8c0;}.cls-6{fill:#a29eba;}.cls-12,.cls-26,.cls-7,.cls-9{fill:#cccff6;}.cls-11,.cls-12,.cls-13,.cls-14,.cls-15,.cls-16,.cls-17,.cls-18,.cls-19,.cls-20,.cls-21,.cls-22,.cls-23,.cls-7{fill-rule:evenodd;}.cls-8{fill:#ebecfb;}.cls-10{stroke:#414042;}.cls-10,.cls-12,.cls-14,.cls-15,.cls-16,.cls-17,.cls-18,.cls-20,.cls-22,.cls-23{stroke-width:0.5px;}.cls-11{fill:#c6c6c6;}.cls-13,.cls-20{fill:#abc3f6;}.cls-14{fill:#ededed;}.cls-15{fill:#d8d3f8;}.cls-16{fill:#f9f9f9;}.cls-17{fill:#e0e2fa;}.cls-18{fill:#d6d9f8;}.cls-19{fill:#dddcdb;}.cls-21,.cls-22{fill:#d5e1fa;}.cls-23{fill:#96b4f3;}.cls-24{fill:#b3b3b3;}.cls-25{fill:#fff;}.cls-27{fill:#263238;}.cls-29{fill:#8087e8;}.cls-30{fill:#f0eefc;}</style></defs><title>highchartsArtboard 1</title><path class="cls-1" d="M183.6572,383.9906H132.5849V202.4483H179.866a3.8021,3.8021,0,0,1,3.8006,3.8006V383.9906Z"/><path class="cls-1" d="M143.78,202.4483h33.5935c3.4713,0,6.2935,2.1731,6.2935,4.8542v43.4336"/><path class="cls-1" d="M43.8739,383.9906H83.2811V176.3712H48.173a4.2979,4.2979,0,0,0-4.2991,4.2992Z"/><path class="cls-1" d="M63.5728,176.3712H50.412c-3.6124,0-6.5381,2.2578-6.5381,5.0518V383.9906"/><rect class="cls-1" x="84.7487" y="150.7363" width="36.7356" height="17.3565"/><rect class="cls-1" x="84.7487" y="150.7363" width="36.7356" height="17.3565"/><path class="cls-1" d="M132.5849,383.9906H74.2689V163.248a2.67,2.67,0,0,1,2.6717-2.6716h52.9726a2.67,2.67,0,0,1,2.6717,2.6716Z"/><path class="cls-1" d="M74.2689,383.9906V163.7749c0-1.7686,1.8627-3.2079,4.1486-3.2079h50.0093c2.2954,0,4.1487,1.43,4.1487,3.2079v86.9518"/><path class="cls-1" d="M184.8613,383.5513h51.0723V202.009H188.6524a3.802,3.802,0,0,0-3.8,3.8005V383.5513Z"/><path class="cls-1" d="M224.7389,202.009H191.1454c-3.4713,0-6.2935,2.1731-6.2935,4.8542v43.4335"/><path class="cls-1" d="M324.654,383.5513H285.2467V175.9319h35.1081a4.2979,4.2979,0,0,1,4.2992,4.2992v203.32Z"/><path class="cls-1" d="M304.9456,175.9319h13.1609c3.6124,0,6.538,2.2578,6.538,5.0518V383.5513"/><rect class="cls-1" x="247.0357" y="150.3018" width="36.7355" height="17.3565"/><rect class="cls-1" x="247.0357" y="150.3018" width="36.7355" height="17.3565"/><path class="cls-1" d="M235.9336,383.9747H294.25V162.8087a2.67,2.67,0,0,0-2.6717-2.6717H238.6053a2.67,2.67,0,0,0-2.6717,2.6717Z"/><path class="cls-1" d="M294.25,383.5513V163.3355c0-1.7685-1.8626-3.2079-4.1486-3.2079H240.0916c-2.2954,0-4.1486,1.43-4.1486,3.2079v86.9518"/><path class="cls-1" d="M463.3177,383H412.2454V201.4577h47.2812a3.8021,3.8021,0,0,1,3.8006,3.8006V383Z"/><path class="cls-1" d="M423.4307,201.4577h33.5936c3.4713,0,6.2934,2.1731,6.2934,4.8542V382.7272"/><path class="cls-1" d="M323.5251,383h39.4072V175.3806H327.8242a4.2979,4.2979,0,0,0-4.2992,4.2992V383Z"/><path class="cls-1" d="M343.2334,175.3806H330.0726c-3.6124,0-6.5381,2.2578-6.5381,5.0518V383"/><rect class="cls-1" x="364.3999" y="149.7457" width="36.7355" height="17.3565"/><rect class="cls-1" x="364.3999" y="149.7457" width="36.7355" height="17.3565"/><path class="cls-1" d="M412.2361,383H353.92V162.2574a2.67,2.67,0,0,1,2.6717-2.6716h52.9726a2.67,2.67,0,0,1,2.6717,2.6716Z"/><path class="cls-1" d="M353.93,383V162.7842c0-1.7685,1.8627-3.2078,4.1486-3.2078h50.0093c2.2954,0,4.1487,1.43,4.1487,3.2078V249.736"/><rect class="cls-2" x="200.214" y="189.9112" width="49.8588" height="49.8588"/><line class="cls-2" x1="200.4492" y1="190.1464" x2="249.3672" y2="239.5348"/><line class="cls-2" x1="200.4492" y1="239.7699" x2="249.8376" y2="190.1464"/><rect class="cls-2" x="200.214" y="255.1321" width="49.8588" height="49.8588"/><line class="cls-2" x1="200.4492" y1="255.3673" x2="249.3672" y2="304.7557"/><line class="cls-2" x1="200.4492" y1="304.9909" x2="249.8376" y2="255.3673"/><rect class="cls-2" x="200.214" y="316.5995" width="49.8588" height="49.8588"/><line class="cls-2" x1="200.4492" y1="316.8347" x2="249.3672" y2="366.2231"/><line class="cls-2" x1="200.4492" y1="366.4582" x2="249.8376" y2="316.8347"/><rect class="cls-2" x="264.1838" y="189.9112" width="49.8588" height="49.8588"/><line class="cls-2" x1="264.4189" y1="190.1464" x2="313.337" y2="239.5348"/><line class="cls-2" x1="264.4189" y1="239.7699" x2="313.8073" y2="190.1464"/><rect class="cls-2" x="264.1838" y="255.1321" width="49.8588" height="49.8588"/><line class="cls-2" x1="264.4189" y1="255.3673" x2="313.337" y2="304.7557"/><line class="cls-2" x1="264.4189" y1="304.9909" x2="313.8073" y2="255.3673"/><rect class="cls-2" x="264.1838" y="316.5995" width="49.8588" height="49.8588"/><line class="cls-2" x1="264.4189" y1="316.8347" x2="313.337" y2="366.2231"/><line class="cls-2" x1="264.4189" y1="366.4582" x2="313.8073" y2="316.8347"/><rect class="cls-3" x="184.692" y="174.3891" width="15.9924" height="190.0277"/><rect class="cls-3" x="248.6617" y="174.3891" width="15.9924" height="190.0277"/><rect class="cls-3" x="310.75" y="174.3891" width="15.9924" height="190.0277"/><rect class="cls-3" x="169.6376" y="301.8564" width="178.2686" height="15.0517"/><rect class="cls-3" x="169.6376" y="239.7682" width="178.2686" height="15.0517"/><rect class="cls-4" x="133.8925" y="240.7107" width="29.1627" height="9.4073"/><rect class="cls-5" x="150.3553" y="241.181" width="12.6999" height="8.4666"/><rect class="cls-4" x="133.8925" y="269.8733" width="29.1627" height="9.4073"/><rect class="cls-5" x="150.3553" y="270.3437" width="12.6999" height="8.4666"/><rect class="cls-4" x="133.8925" y="300.9175" width="29.1627" height="9.4073"/><rect class="cls-5" x="150.3553" y="301.3878" width="12.6999" height="8.4666"/><rect class="cls-4" x="133.8925" y="327.258" width="29.1627" height="9.4073"/><rect class="cls-5" x="150.3553" y="327.7283" width="12.6999" height="8.4666"/><rect class="cls-4" x="133.8925" y="358.3021" width="29.1627" height="9.4073"/><rect class="cls-5" x="150.3553" y="358.7725" width="12.6999" height="8.4666"/><rect class="cls-4" x="127.3074" y="224.7182" width="11.2888" height="158.0429"/><rect class="cls-4" x="158.3515" y="224.7182" width="11.2888" height="158.0429"/><rect class="cls-6" x="311.2177" y="255.2902" width="15.0517" height="15.0517"/><rect class="cls-6" x="249.1294" y="255.2902" width="15.0517" height="15.0517"/><rect class="cls-6" x="185.1486" y="255.2885" width="14.9953" height="15.0517"/><rect class="cls-6" x="185.1619" y="174.3569" width="15.0517" height="23.8758"/><rect class="cls-6" x="249.1316" y="174.3569" width="15.0517" height="23.8758"/><rect class="cls-6" x="311.1519" y="174.3547" width="15.0517" height="23.8758"/><rect class="cls-6" x="311.2894" y="317.5946" width="14.9765" height="15.3057"/><rect class="cls-6" x="249.2025" y="317.6308" width="14.9765" height="15.2681"/><rect class="cls-6" x="185.2116" y="317.5772" width="14.7601" height="15.3245"/><path class="cls-7" d="M236.9025,382.9963v-8.7018a11.322,11.322,0,0,1,11.2888-11.2888H263.243a11.322,11.322,0,0,1,11.2888,11.2888v8.4666Z"/><path class="cls-7" d="M174.3439,382.9963v-8.7018a11.322,11.322,0,0,1,11.2888-11.2888h15.0517a11.322,11.322,0,0,1,11.2888,11.2888v8.4666Z"/><path class="cls-7" d="M299.4612,382.9963v-8.7018A11.322,11.322,0,0,1,310.75,363.0057h15.0517A11.322,11.322,0,0,1,337.09,374.2945v8.4666Z"/><path class="cls-8" d="M387.1627,73.1976s-8.41,17.0931-.3387,32.7093l-16.1523.5926C370.6717,106.49,369.6557,72.3133,387.1627,73.1976Z"/><path class="cls-9" d="M374.491,84.6934s-11.43-6.19-16.6885,6.7732c0,0-7.112-1.1759-8.6548,7.9586,0,0,4.017,7.6576,9.2756,7.3659,5.2493-.2916,14.2145-.5926,14.2145-.5926S368.31,93.8279,374.491,84.6934Z"/><path class="cls-10" d="M357.3133,90.8081h.301a10.8093,10.8093,0,0,1,16.2371-6.0865,14.8146,14.8146,0,0,1,28.7863-2.1355,10.133,10.133,0,0,1,12.6811,8.222h1.6557a7.6223,7.6223,0,0,1,7.6011,7.6011v.5551a7.6284,7.6284,0,0,1-7.6011,7.6011H357.3227a7.6223,7.6223,0,0,1-7.6011-7.6011v-.5551A7.6142,7.6142,0,0,1,357.3133,90.8081Z"/><path class="cls-10" d="M406.3066,106.5748h10.6585a7.6223,7.6223,0,0,0,7.6011-7.6011v-.5645a7.6284,7.6284,0,0,0-7.6011-7.6011h-1.6557a10.133,10.133,0,0,0-12.6811-8.222,14.8147,14.8147,0,0,0-28.7864,2.1355,10.8092,10.8092,0,0,0-16.237,6.0865h-.301a7.6222,7.6222,0,0,0-7.6011,7.6011v.5551a7.6222,7.6222,0,0,0,7.6011,7.6011h49.0027Z"/><path class="cls-8" d="M65.015,72.6981s-8.41,17.0931-.3387,32.7092l-16.1524.5833S47.5079,71.8138,65.015,72.6981Z"/><path class="cls-9" d="M52.3433,84.1844s-11.43-6.19-16.6886,6.7733c0,0-7.1119-1.1759-8.6547,7.9586,0,0,4.0169,7.6575,9.2756,7.3659S50.49,105.69,50.49,105.69,46.1627,93.3189,52.3433,84.1844Z"/><path class="cls-10" d="M35.1655,90.3086h.3011a10.8094,10.8094,0,0,1,16.237-6.0866A14.8147,14.8147,0,0,1,80.49,82.0866a10.1329,10.1329,0,0,1,12.681,8.222h1.6557a7.6222,7.6222,0,0,1,7.6011,7.6011v.555a7.6282,7.6282,0,0,1-7.6011,7.6011H35.1655a7.6222,7.6222,0,0,1-7.6011-7.6011V97.91A7.6283,7.6283,0,0,1,35.1655,90.3086Z"/><path class="cls-10" d="M84.1588,106.0658H94.8173a7.6222,7.6222,0,0,0,7.6011-7.6011V97.91a7.6282,7.6282,0,0,0-7.6011-7.6011H93.1616a10.1329,10.1329,0,0,0-12.681-8.222A14.8147,14.8147,0,0,0,51.6942,84.222a10.8094,10.8094,0,0,0-16.237,6.0866h-.2917A7.6222,7.6222,0,0,0,27.5644,97.91v.555a7.6222,7.6222,0,0,0,7.6011,7.6011H84.1588Z"/><path class="cls-8" d="M108.6557,24.0264s-5.127,10.4139-.207,19.9247l-9.84.3575C98.6181,44.3086,97.9972,23.49,108.6557,24.0264Z"/><path class="cls-9" d="M100.9417,31.0254s-6.9614-3.7723-10.1693,4.13c0,0-4.3274-.715-5.2681,4.8447,0,0,2.4459,4.666,5.6444,4.4873s8.6547-.3575,8.6547-.3575S97.1787,36.5946,100.9417,31.0254Z"/><path class="cls-10" d="M90.4807,34.76H90.66a6.5865,6.5865,0,0,1,9.8871-3.7158,9.0168,9.0168,0,0,1,17.5258-1.2982,6.0849,6.0849,0,0,1,1.6086-.2164,6.195,6.195,0,0,1,6.1148,5.23h1.0066a4.6372,4.6372,0,0,1,4.6284,4.6284v.3387a4.6372,4.6372,0,0,1-4.6284,4.6284H90.4807a4.6372,4.6372,0,0,1-4.6284-4.6284v-.3387A4.6373,4.6373,0,0,1,90.4807,34.76Z"/><path class="cls-10" d="M120.3207,44.3556h6.4911a4.6371,4.6371,0,0,0,4.6284-4.6284v-.3387a4.6372,4.6372,0,0,0-4.6284-4.6284h-1.0066a6.2023,6.2023,0,0,0-6.1148-5.23,6.44,6.44,0,0,0-1.6086.2164,9.0168,9.0168,0,0,0-17.5258,1.2982A6.5865,6.5865,0,0,0,90.6689,34.76H90.49a4.6373,4.6373,0,0,0-4.6284,4.6284v.3387A4.6372,4.6372,0,0,0,90.49,44.3556h29.8306Z"/><polygon class="cls-11" points="459.504 97.052 458.3 103.119 457.971 103.101 459.166 97.014 459.504 97.052"/><polygon class="cls-12" points="441.442 73.232 456.569 110.72 456.776 110.636 441.659 73.148 441.442 73.232"/><polygon class="cls-12" points="451.602 87.823 459.147 98.444 459.335 98.312 451.79 87.691 451.602 87.823"/><path class="cls-13" d="M460.2756,95.5371h3.0386a.1685.1685,0,0,1,.1693.1693v1.0254a.1685.1685,0,0,1-.1693.1693h-3.0386a.1685.1685,0,0,1-.1693-.1693V95.7064A.1685.1685,0,0,1,460.2756,95.5371Z"/><polygon class="cls-12" points="472.007 87.823 464.462 98.444 464.274 98.312 471.818 87.691 472.007 87.823"/><polygon class="cls-12" points="482.166 73.232 467.039 110.72 466.833 110.636 481.95 73.148 482.166 73.232"/><path class="cls-12" d="M439.5042,36.0358a22.31,22.31,0,0,0-6.0018,19.492c1.872,11.7873,14.8165,27.3282,21.6838,37.3564h13.2173c6.8767-10.0282,19.8212-25.5691,21.6838-37.3564a22.2833,22.2833,0,0,0-6.0018-19.492C474.0479,25.9982,449.5607,25.9982,439.5042,36.0358Z"/><path class="cls-14" d="M446.8608,36.0358c-3.1515,4.6943-4.8448,11.731-4.0169,19.492,1.2511,11.7873,9.9247,27.3282,14.5343,37.3564H466.23c4.61-10.0282,13.2832-25.5691,14.5344-37.3564.8278-7.761-.8655-14.7977-4.017-19.492C470.0121,25.9982,453.5964,25.9982,446.8608,36.0358Z"/><path class="cls-15" d="M454.3866,55.5278c.4892,11.7873,3.8852,27.3282,5.6914,37.3564H463.54c3.0386-16.8861,8.6077-39.7459,4.111-56.8484C464.1138,22.574,453.1543,25.9888,454.3866,55.5278Z"/><path class="cls-16" d="M463.54,92.8842h2.7c4.61-10.0282,13.2832-25.5691,14.5343-37.3564,1.477-13.904-4.6754-27.0178-18.9651-27.0178,2.2672,0,4.5249,2.5117,5.8513,7.5258C472.1382,53.1289,466.56,76.0734,463.54,92.8842Z"/><path class="cls-17" d="M461.8278,92.6961V28.51c7.206,0,7.6952,19.6989,7.3941,26.9425-.4891,11.75-3.8758,27.2436-5.6726,37.253h-1.7215Z"/><path class="cls-18" d="M466.23,92.8842h2.1825c6.8768-10.0282,19.8212-25.5691,21.6839-37.3564C492.43,40.7959,482.204,28.51,461.8,28.51c14.29,0,20.4421,13.1232,18.9651,27.0178C479.5135,67.3057,470.84,82.8466,466.23,92.8842Z"/><polygon class="cls-12" points="451.602 87.823 472.007 87.823 468.413 92.884 455.196 92.884 451.602 87.823"/><polygon class="cls-19" points="464.104 97.052 465.308 103.119 465.638 103.101 464.443 97.014 464.104 97.052"/><path class="cls-20" d="M457.9708,103.0818c.1129,0,7.7328-.0377,7.7422.0658l1.3453,7.5164a.08.08,0,0,1-.0753.0941h0c-.1223,0-10.4327.0471-10.4327-.0752,0,0,1.3453-7.5259,1.3453-7.5353a.08.08,0,0,1,.0752-.0658Z"/><path class="cls-21" d="M461.8278,96.9106V95.5371c1.2418,0,1.6557-.1129,1.6557.1693v1.0254C463.4835,97.0234,463.07,96.9106,461.8278,96.9106Z"/><path class="cls-11" d="M459.4478,96.7506c4.8635,0,4.9106-.1693,5.0047.2823l.3386,1.7121c.0282.15-.1317.2822-.2822.2822-5.0894,0-5.7573.1693-5.6726-.2822l.3386-1.7121A.2878.2878,0,0,1,459.4478,96.7506Z"/><path class="cls-19" d="M461.8278,99.0366v-2.286h2.333a.3033.3033,0,0,1,.2822.2823l.3387,1.7121c.0282.15-.1317.2822-.2822.2822h-2.6717Z"/><path class="cls-22" d="M461.8278,110.7581v-7.6669h3.81c.0752,0,1.4957,7.6481,1.3546,7.6669h-5.1646Z"/><polygon class="cls-12" points="463.521 103.082 464.057 110.758 459.551 110.758 460.087 103.082 463.521 103.082"/><polygon class="cls-23" points="461.828 110.758 461.828 103.082 463.521 103.082 464.057 110.758 461.828 110.758"/><path class="cls-24" d="M157.7212,24.461h178.08A17.4705,17.4705,0,0,1,353.271,41.93v122.709H140.2518V41.93A17.4705,17.4705,0,0,1,157.7212,24.461Z"/><path class="cls-24" d="M116.47,161.8172H382.7065v3.7441a10.1254,10.1254,0,0,1-10.1223,10.1223H126.583a10.1254,10.1254,0,0,1-10.1223-10.1223v-3.7441Z"/><path class="cls-25" d="M120.2331,158.995H386.4694v3.7441a10.1254,10.1254,0,0,1-10.1223,10.1223H130.3459a10.1254,10.1254,0,0,1-10.1223-10.1223V158.995Z"/><path class="cls-25" d="M221.2864,158.995H285.322a4.601,4.601,0,0,1-4.6,4.6h-54.76a4.6014,4.6014,0,0,1-4.666-4.5343.16.16,0,0,1-.0094-.0659Z"/><path class="cls-25" d="M164.3063,18.8167H342.3868A17.47,17.47,0,0,1,359.8561,36.286V158.995H146.8369V36.286A17.47,17.47,0,0,1,164.3063,18.8167Z"/><rect class="cls-26" x="159.3675" y="30.5382" width="187.9675" height="116.7353"/><path class="cls-27" d="M327.4385,136.9857H183.6666c-.7056,0-1.2794-.4046-1.2794-.8937V44.4835c0-.4985.5738-.8936,1.2794-.8936s1.2794.4045,1.2794.8936v90.7054H327.4385c.7056,0,1.2794.4045,1.2794.8936C328.7273,136.5811,328.1535,136.9857,327.4385,136.9857Z"/><path class="cls-28" d="M229.8753,136.854H204.2027v-51.74a2.1439,2.1439,0,0,1,2.1449-2.1448H227.73a2.1439,2.1439,0,0,1,2.1449,2.1448v51.74Z"/><path d="M229.8753,136.9857H204.2027c-.7055,0-1.2794-.4046-1.2794-.8937V84.0037c0-1.4864,1.731-2.69,3.8476-2.69h20.5362c2.126,0,3.8476,1.2041,3.8476,2.6905V136.092C231.1641,136.5811,230.59,136.9857,229.8753,136.9857Zm-24.3932-1.7968h23.1044V84.0037c0-.4986-.5739-.8937-1.2794-.8937H206.7709c-.7055,0-1.2794.4045-1.2794.8937v51.1852Z"/><path class="cls-27" d="M255.5573,136.9857H229.8847c-.7055,0-1.2794-.4046-1.2794-.8937v-31.43c0-1.4863,1.7309-2.69,3.8476-2.69h20.5362c2.126,0,3.8475,1.2042,3.8475,2.6905v31.43C256.8366,136.5811,256.2628,136.9857,255.5573,136.9857Zm-24.3932-1.7968h23.1043V104.6527c0-.4986-.5738-.8937-1.2794-.8937H232.4529c-.7056,0-1.2794.4045-1.2794.8937v30.5362Z"/><path class="cls-29" d="M306.9024,136.092H281.23V96.0262a2.1438,2.1438,0,0,1,2.1449-2.1448h21.3828a2.1439,2.1439,0,0,1,2.1449,2.1448Z"/><path d="M306.9024,136.9857H281.23c-.7055,0-1.2794-.4046-1.2794-.8937V95.6781c0-1.4863,1.731-2.69,3.8476-2.69h20.5362c2.126,0,3.8475,1.2041,3.8475,2.69V136.092C308.1817,136.5811,307.6079,136.9857,306.9024,136.9857Zm-24.3932-1.7968h23.1044V95.6781c0-.4985-.5739-.8937-1.2794-.8937H283.798c-.7055,0-1.2793.4046-1.2793.8937v39.5108Z"/><path class="cls-30" d="M281.23,136.092H255.5572V70.8805a2.1439,2.1439,0,0,1,2.1449-2.1449h21.3828a2.1439,2.1439,0,0,1,2.1449,2.1449Z"/><path class="cls-27" d="M281.23,136.9857H255.5572c-.7055,0-1.2794-.4046-1.2794-.8937v-65.56c0-1.4864,1.731-2.69,3.8476-2.69h20.5362c2.1261,0,3.8476,1.2041,3.8476,2.6905v65.56C282.5092,136.5811,281.9354,136.9857,281.23,136.9857Zm-24.3932-1.7968H279.941V70.5324c0-.4986-.5738-.8937-1.2794-.8937H258.1255c-.7056,0-1.2794.4045-1.2794.8937v64.6565Z"/><path class="cls-27" d="M204.2027,141.4729c-.7055,0-1.2794-.4045-1.2794-.8936V136.092c0-.4986.5739-.8937,1.2794-.8937s1.2794.4045,1.2794.8937v4.4873C205.4821,141.0778,204.9083,141.4729,204.2027,141.4729Z"/><path class="cls-27" d="M229.8753,141.4729c-.7056,0-1.2794-.4045-1.2794-.8936V136.092c0-.4986.5738-.8937,1.2794-.8937s1.2794.4045,1.2794.8937v4.4873C231.1641,141.0778,230.59,141.4729,229.8753,141.4729Z"/><path class="cls-27" d="M255.5573,141.4729c-.7056,0-1.2794-.4045-1.2794-.8936V136.092c0-.4986.5738-.8937,1.2794-.8937s1.2793.4045,1.2793.8937v4.4873C256.8366,141.0778,256.2628,141.4729,255.5573,141.4729Z"/><path class="cls-27" d="M281.23,141.4729c-.7055,0-1.2794-.4045-1.2794-.8936V136.092c0-.4986.5739-.8937,1.2794-.8937s1.2794.4045,1.2794.8937v4.4873C282.5092,141.0778,281.9354,141.4729,281.23,141.4729Z"/><path class="cls-27" d="M306.9024,141.4729c-.7056,0-1.2794-.4045-1.2794-.8936V136.092c0-.4986.5738-.8937,1.2794-.8937s1.2793.4045,1.2793.8937v4.4873C308.1817,141.0778,307.6079,141.4729,306.9024,141.4729Z"/></svg>